<svg xmlns="http://www.w3.org/2000/svg" viewBox="0 0 24 24" role="img" aria-label="Generate dead tree icon">
  <path fill="none" stroke="#9fff4f" stroke-linecap="round" stroke-linejoin="round" stroke-width="2.8" opacity="0.28" d="M12 20V9m0 0-2.1-2.3M12 9l2.2-2.4M12 12l-3.3-1.9M12 12l3.5-2M12 14.7l-2.6 2.1M12 15l2.7 2.2M10.8 20h2.4"/>
  <path fill="none" stroke="#9fff4f" stroke-linecap="round" stroke-linejoin="round" stroke-width="1.8" d="M12 20V9m0 0-2.1-2.3M12 9l2.2-2.4M12 12l-3.3-1.9M12 12l3.5-2M12 14.7l-2.6 2.1M12 15l2.7 2.2M10.8 20h2.4"/>
</svg>
