{
    "asset" : {
        "generator" : "Khronos glTF Blender I/O v1.3.48",
        "version" : "2.0"
    },
    "scene" : 0,
    "scenes" : [
        {
            "name" : "Scene",
            "nodes" : [
                0,
                1,
                2,
                3,
                4,
                5,
                6,
                7
            ]
        }
    ],
    "nodes" : [
        {
            "mesh" : 0,
            "name" : "0-base"
        },
        {
            "name" : "Empty",
            "rotation" : [
                0.7071068286895752,
                0,
                0,
                0.7071067094802856
            ],
            "scale" : [
                1.2898181676864624,
                1.2898181676864624,
                1.2898181676864624
            ],
            "translation" : [
                1.08494234085083,
                -0.7754468321800232,
                0
            ]
        },
        {
            "name" : "Empty.001",
            "rotation" : [
                0.5,
                -0.4999999701976776,
                0.5000000596046448,
                0.4999999403953552
            ],
            "scale" : [
                1.2898181676864624,
                1.2898181676864624,
                1.2898181676864624
            ],
            "translation" : [
                0,
                -0.7754467725753784,
                -2.0758044719696045
            ]
        },
        {
            "name" : "Empty.002",
            "rotation" : [
                0.5,
                0.4999999701976776,
                -0.5000000596046448,
                0.4999999403953552
            ],
            "scale" : [
                1.2898181676864624,
                1.2898181676864624,
                1.2898181676864624
            ],
            "translation" : [
                1.08494234085083,
                1.478954553604126,
                2.0857229232788086
            ]
        },
        {
            "mesh" : 1,
            "name" : "2-front-right-wheel",
            "translation" : [
                0.6017301082611084,
                0.07899656891822815,
                -1.201563835144043
            ]
        },
        {
            "mesh" : 2,
            "name" : "1-front-left-wheel",
            "translation" : [
                -0.6017299294471741,
                0.07899656891822815,
                -1.201563835144043
            ]
        },
        {
            "mesh" : 3,
            "name" : "4-back-right-wheel",
            "translation" : [
                0.6017299294471741,
                0.07899656891822815,
                1.2078332901000977
            ]
        },
        {
            "mesh" : 4,
            "name" : "3-back-left-wheel",
            "translation" : [
                -0.6017301082611084,
                0.07899656891822815,
                1.2078332901000977
            ]
        }
    ],
    "materials" : [
        {
            "doubleSided" : true,
            "emissiveFactor" : [
                0,
                0,
                0
            ],
            "name" : "body",
            "pbrMetallicRoughness" : {
                "baseColorFactor" : [
                    0.19438500702381134,
                    0.8000000715255737,
                    0.15507231652736664,
                    1
                ],
                "metallicFactor" : 0,
                "roughnessFactor" : 0.4000000059604645
            }
        },
        {
            "doubleSided" : true,
            "emissiveFactor" : [
                0,
                0,
                0
            ],
            "name" : "dark",
            "pbrMetallicRoughness" : {
                "baseColorFactor" : [
                    0.29569345712661743,
                    0.29569345712661743,
                    0.29569345712661743,
                    1
                ],
                "metallicFactor" : 0,
                "roughnessFactor" : 0.5
            }
        },
        {
            "doubleSided" : true,
            "emissiveFactor" : [
                0,
                0,
                0
            ],
            "name" : "glass",
            "pbrMetallicRoughness" : {
                "baseColorFactor" : [
                    0.25498610734939575,
                    0.73248291015625,
                    0.8000000715255737,
                    1
                ],
                "metallicFactor" : 0,
                "roughnessFactor" : 0.5
            }
        }
    ],
    "meshes" : [
        {
            "name" : "Cube",
            "primitives" : [
                {
                    "attributes" : {
                        "POSITION" : 0,
                        "NORMAL" : 1,
                        "TEXCOORD_0" : 2
                    },
                    "indices" : 3,
                    "material" : 0
                },
                {
                    "attributes" : {
                        "POSITION" : 4,
                        "NORMAL" : 5,
                        "TEXCOORD_0" : 6
                    },
                    "indices" : 7,
                    "material" : 1
                },
                {
                    "attributes" : {
                        "POSITION" : 8,
                        "NORMAL" : 9,
                        "TEXCOORD_0" : 10
                    },
                    "indices" : 11,
                    "material" : 2
                }
            ]
        },
        {
            "name" : "Circle",
            "primitives" : [
                {
                    "attributes" : {
                        "POSITION" : 12,
                        "NORMAL" : 13,
                        "TEXCOORD_0" : 14
                    },
                    "indices" : 15
                }
            ]
        },
        {
            "name" : "Circle.001",
            "primitives" : [
                {
                    "attributes" : {
                        "POSITION" : 16,
                        "NORMAL" : 17,
                        "TEXCOORD_0" : 18
                    },
                    "indices" : 15
                }
            ]
        },
        {
            "name" : "Circle.002",
            "primitives" : [
                {
                    "attributes" : {
                        "POSITION" : 19,
                        "NORMAL" : 20,
                        "TEXCOORD_0" : 21
                    },
                    "indices" : 15
                }
            ]
        },
        {
            "name" : "Circle.003",
            "primitives" : [
                {
                    "attributes" : {
                        "POSITION" : 22,
                        "NORMAL" : 23,
                        "TEXCOORD_0" : 24
                    },
                    "indices" : 15
                }
            ]
        }
    ],
    "accessors" : [
        {
            "bufferView" : 0,
            "componentType" : 5126,
            "count" : 137,
            "max" : [
                0.7449973225593567,
                1.2000000476837158,
                1.7999999523162842
            ],
            "min" : [
                -0.7449972033500671,
                0,
                -1.6500000953674316
            ],
            "type" : "VEC3"
        },
        {
            "bufferView" : 1,
            "componentType" : 5126,
            "count" : 137,
            "type" : "VEC3"
        },
        {
            "bufferView" : 2,
            "componentType" : 5126,
            "count" : 137,
            "type" : "VEC2"
        },
        {
            "bufferView" : 3,
            "componentType" : 5123,
            "count" : 462,
            "type" : "SCALAR"
        },
        {
            "bufferView" : 4,
            "componentType" : 5126,
            "count" : 44,
            "max" : [
                0.7898877263069153,
                0.3500000238418579,
                1.7999999523162842
            ],
            "min" : [
                -0.7898876070976257,
                0.06411862373352051,
                -1.6825693845748901
            ],
            "type" : "VEC3"
        },
        {
            "bufferView" : 5,
            "componentType" : 5126,
            "count" : 44,
            "type" : "VEC3"
        },
        {
            "bufferView" : 6,
            "componentType" : 5126,
            "count" : 44,
            "type" : "VEC2"
        },
        {
            "bufferView" : 7,
            "componentType" : 5123,
            "count" : 144,
            "type" : "SCALAR"
        },
        {
            "bufferView" : 8,
            "componentType" : 5126,
            "count" : 28,
            "max" : [
                0.7051459550857544,
                1.1205389499664307,
                1.5188546180725098
            ],
            "min" : [
                -0.7051459550857544,
                0.6893320679664612,
                -0.6862977147102356
            ],
            "type" : "VEC3"
        },
        {
            "bufferView" : 9,
            "componentType" : 5126,
            "count" : 28,
            "type" : "VEC3"
        },
        {
            "bufferView" : 10,
            "componentType" : 5126,
            "count" : 28,
            "type" : "VEC2"
        },
        {
            "bufferView" : 11,
            "componentType" : 5123,
            "count" : 48,
            "type" : "SCALAR"
        },
        {
            "bufferView" : 12,
            "componentType" : 5126,
            "count" : 34,
            "max" : [
                0.1000000387430191,
                0.2866920232772827,
                0.28669214248657227
            ],
            "min" : [
                -0.10000000149011612,
                -0.2866920828819275,
                -0.28669196367263794
            ],
            "type" : "VEC3"
        },
        {
            "bufferView" : 13,
            "componentType" : 5126,
            "count" : 34,
            "type" : "VEC3"
        },
        {
            "bufferView" : 14,
            "componentType" : 5126,
            "count" : 34,
            "type" : "VEC2"
        },
        {
            "bufferView" : 15,
            "componentType" : 5123,
            "count" : 192,
            "type" : "SCALAR"
        },
        {
            "bufferView" : 16,
            "componentType" : 5126,
            "count" : 34,
            "max" : [
                0.1000000387430191,
                0.2866920232772827,
                0.28669214248657227
            ],
            "min" : [
                -0.10000000149011612,
                -0.2866920828819275,
                -0.28669196367263794
            ],
            "type" : "VEC3"
        },
        {
            "bufferView" : 17,
            "componentType" : 5126,
            "count" : 34,
            "type" : "VEC3"
        },
        {
            "bufferView" : 18,
            "componentType" : 5126,
            "count" : 34,
            "type" : "VEC2"
        },
        {
            "bufferView" : 19,
            "componentType" : 5126,
            "count" : 34,
            "max" : [
                0.1000000387430191,
                0.2866920232772827,
                0.28669214248657227
            ],
            "min" : [
                -0.10000000149011612,
                -0.2866920828819275,
                -0.28669196367263794
            ],
            "type" : "VEC3"
        },
        {
            "bufferView" : 20,
            "componentType" : 5126,
            "count" : 34,
            "type" : "VEC3"
        },
        {
            "bufferView" : 21,
            "componentType" : 5126,
            "count" : 34,
            "type" : "VEC2"
        },
        {
            "bufferView" : 22,
            "componentType" : 5126,
            "count" : 34,
            "max" : [
                0.1000000387430191,
                0.2866920232772827,
                0.28669214248657227
            ],
            "min" : [
                -0.10000000149011612,
                -0.2866920828819275,
                -0.28669196367263794
            ],
            "type" : "VEC3"
        },
        {
            "bufferView" : 23,
            "componentType" : 5126,
            "count" : 34,
            "type" : "VEC3"
        },
        {
            "bufferView" : 24,
            "componentType" : 5126,
            "count" : 34,
            "type" : "VEC2"
        }
    ],
    "bufferViews" : [
        {
            "buffer" : 0,
            "byteLength" : 1644,
            "byteOffset" : 0
        },
        {
            "buffer" : 0,
            "byteLength" : 1644,
            "byteOffset" : 1644
        },
        {
            "buffer" : 0,
            "byteLength" : 1096,
            "byteOffset" : 3288
        },
        {
            "buffer" : 0,
            "byteLength" : 924,
            "byteOffset" : 4384
        },
        {
            "buffer" : 0,
            "byteLength" : 528,
            "byteOffset" : 5308
        },
        {
            "buffer" : 0,
            "byteLength" : 528,
            "byteOffset" : 5836
        },
        {
            "buffer" : 0,
            "byteLength" : 352,
            "byteOffset" : 6364
        },
        {
            "buffer" : 0,
            "byteLength" : 288,
            "byteOffset" : 6716
        },
        {
            "buffer" : 0,
            "byteLength" : 336,
            "byteOffset" : 7004
        },
        {
            "buffer" : 0,
            "byteLength" : 336,
            "byteOffset" : 7340
        },
        {
            "buffer" : 0,
            "byteLength" : 224,
            "byteOffset" : 7676
        },
        {
            "buffer" : 0,
            "byteLength" : 96,
            "byteOffset" : 7900
        },
        {
            "buffer" : 0,
            "byteLength" : 408,
            "byteOffset" : 7996
        },
        {
            "buffer" : 0,
            "byteLength" : 408,
            "byteOffset" : 8404
        },
        {
            "buffer" : 0,
            "byteLength" : 272,
            "byteOffset" : 8812
        },
        {
            "buffer" : 0,
            "byteLength" : 384,
            "byteOffset" : 9084
        },
        {
            "buffer" : 0,
            "byteLength" : 408,
            "byteOffset" : 9468
        },
        {
            "buffer" : 0,
            "byteLength" : 408,
            "byteOffset" : 9876
        },
        {
            "buffer" : 0,
            "byteLength" : 272,
            "byteOffset" : 10284
        },
        {
            "buffer" : 0,
            "byteLength" : 408,
            "byteOffset" : 10556
        },
        {
            "buffer" : 0,
            "byteLength" : 408,
            "byteOffset" : 10964
        },
        {
            "buffer" : 0,
            "byteLength" : 272,
            "byteOffset" : 11372
        },
        {
            "buffer" : 0,
            "byteLength" : 408,
            "byteOffset" : 11644
        },
        {
            "buffer" : 0,
            "byteLength" : 408,
            "byteOffset" : 12052
        },
        {
            "buffer" : 0,
            "byteLength" : 272,
            "byteOffset" : 12460
        }
    ],
    "buffers" : [
        {
            "byteLength" : 12732,
            "uri" : "data:application/octet-stream;base64,"
        }
    ]
}
