{
    "asset" : {
        "generator" : "Khronos glTF Blender I/O v1.3.48",
        "version" : "2.0"
    },
    "scene" : 0,
    "scenes" : [
        {
            "name" : "Scene",
            "nodes" : [
                0,
                1,
                2,
                3,
                4,
                5,
                6,
                7,
                8
            ]
        }
    ],
    "nodes" : [
        {
            "mesh" : 0,
            "name" : "4-torso",
            "translation" : [
                0,
                1.152859091758728,
                -0.05000000074505806
            ]
        },
        {
            "mesh" : 1,
            "name" : "1-upper-leg",
            "translation" : [
                0.06798449903726578,
                0.9954872131347656,
                0
            ]
        },
        {
            "mesh" : 2,
            "name" : "2-lower-leg",
            "translation" : [
                0.07728065550327301,
                0.5362808704376221,
                0.024394197389483452
            ]
        },
        {
            "mesh" : 3,
            "name" : "3-foot",
            "translation" : [
                0.0601823516190052,
                0.07670225948095322,
                0.03576302528381348
            ]
        },
        {
            "mesh" : 4,
            "name" : "0-body",
            "translation" : [
                0,
                1.0083011388778687,
                0
            ]
        },
        {
            "mesh" : 5,
            "name" : "5-upper-arm",
            "translation" : [
                0.11011245846748352,
                1.390965461730957,
                0
            ]
        },
        {
            "mesh" : 6,
            "name" : "6-lower-arm",
            "translation" : [
                0.35781314969062805,
                1.39259934425354,
                0
            ]
        },
        {
            "mesh" : 7,
            "name" : "7-hand",
            "translation" : [
                0.5882022976875305,
                1.39259934425354,
                -0.013552336022257805
            ]
        },
        {
            "mesh" : 8,
            "name" : "8-head",
            "translation" : [
                0,
                1.4634780883789062,
                0.010570806451141834
            ]
        }
    ],
    "meshes" : [
        {
            "name" : "Girl_Body",
            "primitives" : [
                {
                    "attributes" : {
                        "POSITION" : 0,
                        "NORMAL" : 1,
                        "TEXCOORD_0" : 2,
                        "COLOR_0" : 3
                    },
                    "indices" : 4
                }
            ]
        },
        {
            "name" : "Girl_Body.002",
            "primitives" : [
                {
                    "attributes" : {
                        "POSITION" : 5,
                        "NORMAL" : 6,
                        "TEXCOORD_0" : 7,
                        "COLOR_0" : 8
                    },
                    "indices" : 9
                }
            ]
        },
        {
            "name" : "Girl_Body.003",
            "primitives" : [
                {
                    "attributes" : {
                        "POSITION" : 10,
                        "NORMAL" : 11,
                        "TEXCOORD_0" : 12,
                        "COLOR_0" : 13
                    },
                    "indices" : 14
                }
            ]
        },
        {
            "name" : "Girl_Body.001",
            "primitives" : [
                {
                    "attributes" : {
                        "POSITION" : 15,
                        "NORMAL" : 16,
                        "TEXCOORD_0" : 17,
                        "COLOR_0" : 18
                    },
                    "indices" : 19
                }
            ]
        },
        {
            "name" : "Girl_Body.004",
            "primitives" : [
                {
                    "attributes" : {
                        "POSITION" : 20,
                        "NORMAL" : 21,
                        "TEXCOORD_0" : 22,
                        "COLOR_0" : 23
                    },
                    "indices" : 24
                }
            ]
        },
        {
            "name" : "Girl_Body.005",
            "primitives" : [
                {
                    "attributes" : {
                        "POSITION" : 25,
                        "NORMAL" : 26,
                        "TEXCOORD_0" : 27,
                        "COLOR_0" : 28
                    },
                    "indices" : 29
                }
            ]
        },
        {
            "name" : "Girl_Body.006",
            "primitives" : [
                {
                    "attributes" : {
                        "POSITION" : 30,
                        "NORMAL" : 31,
                        "TEXCOORD_0" : 32,
                        "COLOR_0" : 33
                    },
                    "indices" : 34
                }
            ]
        },
        {
            "name" : "Girl_Body.007",
            "primitives" : [
                {
                    "attributes" : {
                        "POSITION" : 35,
                        "NORMAL" : 36,
                        "TEXCOORD_0" : 37,
                        "COLOR_0" : 38
                    },
                    "indices" : 39
                }
            ]
        },
        {
            "name" : "Girl_Body.008",
            "primitives" : [
                {
                    "attributes" : {
                        "POSITION" : 40,
                        "NORMAL" : 41,
                        "TEXCOORD_0" : 42,
                        "COLOR_0" : 43
                    },
                    "indices" : 44
                }
            ]
        }
    ],
    "accessors" : [
        {
            "bufferView" : 0,
            "componentType" : 5126,
            "count" : 486,
            "max" : [
                0.11285065859556198,
                0.3133179247379303,
                0.11031824350357056
            ],
            "min" : [
                -0.11285065859556198,
                -0.006560784764587879,
                -0.08185464888811111
            ],
            "type" : "VEC3"
        },
        {
            "bufferView" : 1,
            "componentType" : 5126,
            "count" : 486,
            "type" : "VEC3"
        },
        {
            "bufferView" : 2,
            "componentType" : 5126,
            "count" : 486,
            "type" : "VEC2"
        },
        {
            "bufferView" : 3,
            "componentType" : 5126,
            "count" : 486,
            "type" : "VEC4"
        },
        {
            "bufferView" : 4,
            "componentType" : 5123,
            "count" : 1848,
            "type" : "SCALAR"
        },
        {
            "bufferView" : 5,
            "componentType" : 5126,
            "count" : 348,
            "max" : [
                0.11505592614412308,
                0.07842492312192917,
                0.11080215871334076
            ],
            "min" : [
                -0.046809084713459015,
                -0.492708683013916,
                -0.08095072209835052
            ],
            "type" : "VEC3"
        },
        {
            "bufferView" : 6,
            "componentType" : 5126,
            "count" : 348,
            "type" : "VEC3"
        },
        {
            "bufferView" : 7,
            "componentType" : 5126,
            "count" : 348,
            "type" : "VEC2"
        },
        {
            "bufferView" : 8,
            "componentType" : 5126,
            "count" : 348,
            "type" : "VEC4"
        },
        {
            "bufferView" : 9,
            "componentType" : 5123,
            "count" : 1212,
            "type" : "SCALAR"
        },
        {
            "bufferView" : 10,
            "componentType" : 5126,
            "count" : 316,
            "max" : [
                0.04280891641974449,
                0.03442193567752838,
                0.08750719577074051
            ],
            "min" : [
                -0.04841829091310501,
                -0.47010576725006104,
                -0.04009740799665451
            ],
            "type" : "VEC3"
        },
        {
            "bufferView" : 11,
            "componentType" : 5126,
            "count" : 316,
            "type" : "VEC3"
        },
        {
            "bufferView" : 12,
            "componentType" : 5126,
            "count" : 316,
            "type" : "VEC2"
        },
        {
            "bufferView" : 13,
            "componentType" : 5126,
            "count" : 316,
            "type" : "VEC4"
        },
        {
            "bufferView" : 14,
            "componentType" : 5123,
            "count" : 1248,
            "type" : "SCALAR"
        },
        {
            "bufferView" : 15,
            "componentType" : 5126,
            "count" : 301,
            "max" : [
                0.04267178103327751,
                0.019820628687739372,
                0.04886963218450546
            ],
            "min" : [
                -0.03965611010789871,
                -0.07901153713464737,
                -0.18112033605575562
            ],
            "type" : "VEC3"
        },
        {
            "bufferView" : 16,
            "componentType" : 5126,
            "count" : 301,
            "type" : "VEC3"
        },
        {
            "bufferView" : 17,
            "componentType" : 5126,
            "count" : 301,
            "type" : "VEC2"
        },
        {
            "bufferView" : 18,
            "componentType" : 5126,
            "count" : 301,
            "type" : "VEC4"
        },
        {
            "bufferView" : 19,
            "componentType" : 5123,
            "count" : 1152,
            "type" : "SCALAR"
        },
        {
            "bufferView" : 20,
            "componentType" : 5126,
            "count" : 424,
            "max" : [
                0.13239139318466187,
                0.14902028441429138,
                0.08932071179151535
            ],
            "min" : [
                -0.13239139318466187,
                -0.09607864171266556,
                -0.11619514226913452
            ],
            "type" : "VEC3"
        },
        {
            "bufferView" : 21,
            "componentType" : 5126,
            "count" : 424,
            "type" : "VEC3"
        },
        {
            "bufferView" : 22,
            "componentType" : 5126,
            "count" : 424,
            "type" : "VEC2"
        },
        {
            "bufferView" : 23,
            "componentType" : 5126,
            "count" : 424,
            "type" : "VEC4"
        },
        {
            "bufferView" : 24,
            "componentType" : 5123,
            "count" : 1476,
            "type" : "SCALAR"
        },
        {
            "bufferView" : 25,
            "componentType" : 5126,
            "count" : 188,
            "max" : [
                0.2474137544631958,
                0.03847412019968033,
                0.04084407910704613
            ],
            "min" : [
                -0.027048464864492416,
                -0.03957951068878174,
                -0.04099797457456589
            ],
            "type" : "VEC3"
        },
        {
            "bufferView" : 26,
            "componentType" : 5126,
            "count" : 188,
            "type" : "VEC3"
        },
        {
            "bufferView" : 27,
            "componentType" : 5126,
            "count" : 188,
            "type" : "VEC2"
        },
        {
            "bufferView" : 28,
            "componentType" : 5126,
            "count" : 188,
            "type" : "VEC4"
        },
        {
            "bufferView" : 29,
            "componentType" : 5123,
            "count" : 648,
            "type" : "SCALAR"
        },
        {
            "bufferView" : 30,
            "componentType" : 5126,
            "count" : 231,
            "max" : [
                0.2400873452425003,
                0.03374788537621498,
                0.0330616720020771
            ],
            "min" : [
                -0.0043514748103916645,
                -0.029132697731256485,
                -0.036195989698171616
            ],
            "type" : "VEC3"
        },
        {
            "bufferView" : 31,
            "componentType" : 5126,
            "count" : 231,
            "type" : "VEC3"
        },
        {
            "bufferView" : 32,
            "componentType" : 5126,
            "count" : 231,
            "type" : "VEC2"
        },
        {
            "bufferView" : 33,
            "componentType" : 5126,
            "count" : 231,
            "type" : "VEC4"
        },
        {
            "bufferView" : 34,
            "componentType" : 5123,
            "count" : 792,
            "type" : "SCALAR"
        },
        {
            "bufferView" : 35,
            "componentType" : 5126,
            "count" : 731,
            "max" : [
                0.1824004352092743,
                0.016750220209360123,
                0.0334215871989727
            ],
            "min" : [
                0.004935656674206257,
                -0.02880624122917652,
                -0.09753867983818054
            ],
            "type" : "VEC3"
        },
        {
            "bufferView" : 36,
            "componentType" : 5126,
            "count" : 731,
            "type" : "VEC3"
        },
        {
            "bufferView" : 37,
            "componentType" : 5126,
            "count" : 731,
            "type" : "VEC2"
        },
        {
            "bufferView" : 38,
            "componentType" : 5126,
            "count" : 731,
            "type" : "VEC4"
        },
        {
            "bufferView" : 39,
            "componentType" : 5123,
            "count" : 3024,
            "type" : "SCALAR"
        },
        {
            "bufferView" : 40,
            "componentType" : 5126,
            "count" : 1196,
            "max" : [
                0.12329798191785812,
                0.3017429709434509,
                0.12323976308107376
            ],
            "min" : [
                -0.12329798191785812,
                -0.0031305572483688593,
                -0.12702347338199615
            ],
            "type" : "VEC3"
        },
        {
            "bufferView" : 41,
            "componentType" : 5126,
            "count" : 1196,
            "type" : "VEC3"
        },
        {
            "bufferView" : 42,
            "componentType" : 5126,
            "count" : 1196,
            "type" : "VEC2"
        },
        {
            "bufferView" : 43,
            "componentType" : 5126,
            "count" : 1196,
            "type" : "VEC4"
        },
        {
            "bufferView" : 44,
            "componentType" : 5123,
            "count" : 4524,
            "type" : "SCALAR"
        }
    ],
    "bufferViews" : [
        {
            "buffer" : 0,
            "byteLength" : 5832,
            "byteOffset" : 0
        },
        {
            "buffer" : 0,
            "byteLength" : 5832,
            "byteOffset" : 5832
        },
        {
            "buffer" : 0,
            "byteLength" : 3888,
            "byteOffset" : 11664
        },
        {
            "buffer" : 0,
            "byteLength" : 7776,
            "byteOffset" : 15552
        },
        {
            "buffer" : 0,
            "byteLength" : 3696,
            "byteOffset" : 23328
        },
        {
            "buffer" : 0,
            "byteLength" : 4176,
            "byteOffset" : 27024
        },
        {
            "buffer" : 0,
            "byteLength" : 4176,
            "byteOffset" : 31200
        },
        {
            "buffer" : 0,
            "byteLength" : 2784,
            "byteOffset" : 35376
        },
        {
            "buffer" : 0,
            "byteLength" : 5568,
            "byteOffset" : 38160
        },
        {
            "buffer" : 0,
            "byteLength" : 2424,
            "byteOffset" : 43728
        },
        {
            "buffer" : 0,
            "byteLength" : 3792,
            "byteOffset" : 46152
        },
        {
            "buffer" : 0,
            "byteLength" : 3792,
            "byteOffset" : 49944
        },
        {
            "buffer" : 0,
            "byteLength" : 2528,
            "byteOffset" : 53736
        },
        {
            "buffer" : 0,
            "byteLength" : 5056,
            "byteOffset" : 56264
        },
        {
            "buffer" : 0,
            "byteLength" : 2496,
            "byteOffset" : 61320
        },
        {
            "buffer" : 0,
            "byteLength" : 3612,
            "byteOffset" : 63816
        },
        {
            "buffer" : 0,
            "byteLength" : 3612,
            "byteOffset" : 67428
        },
        {
            "buffer" : 0,
            "byteLength" : 2408,
            "byteOffset" : 71040
        },
        {
            "buffer" : 0,
            "byteLength" : 4816,
            "byteOffset" : 73448
        },
        {
            "buffer" : 0,
            "byteLength" : 2304,
            "byteOffset" : 78264
        },
        {
            "buffer" : 0,
            "byteLength" : 5088,
            "byteOffset" : 80568
        },
        {
            "buffer" : 0,
            "byteLength" : 5088,
            "byteOffset" : 85656
        },
        {
            "buffer" : 0,
            "byteLength" : 3392,
            "byteOffset" : 90744
        },
        {
            "buffer" : 0,
            "byteLength" : 6784,
            "byteOffset" : 94136
        },
        {
            "buffer" : 0,
            "byteLength" : 2952,
            "byteOffset" : 100920
        },
        {
            "buffer" : 0,
            "byteLength" : 2256,
            "byteOffset" : 103872
        },
        {
            "buffer" : 0,
            "byteLength" : 2256,
            "byteOffset" : 106128
        },
        {
            "buffer" : 0,
            "byteLength" : 1504,
            "byteOffset" : 108384
        },
        {
            "buffer" : 0,
            "byteLength" : 3008,
            "byteOffset" : 109888
        },
        {
            "buffer" : 0,
            "byteLength" : 1296,
            "byteOffset" : 112896
        },
        {
            "buffer" : 0,
            "byteLength" : 2772,
            "byteOffset" : 114192
        },
        {
            "buffer" : 0,
            "byteLength" : 2772,
            "byteOffset" : 116964
        },
        {
            "buffer" : 0,
            "byteLength" : 1848,
            "byteOffset" : 119736
        },
        {
            "buffer" : 0,
            "byteLength" : 3696,
            "byteOffset" : 121584
        },
        {
            "buffer" : 0,
            "byteLength" : 1584,
            "byteOffset" : 125280
        },
        {
            "buffer" : 0,
            "byteLength" : 8772,
            "byteOffset" : 126864
        },
        {
            "buffer" : 0,
            "byteLength" : 8772,
            "byteOffset" : 135636
        },
        {
            "buffer" : 0,
            "byteLength" : 5848,
            "byteOffset" : 144408
        },
        {
            "buffer" : 0,
            "byteLength" : 11696,
            "byteOffset" : 150256
        },
        {
            "buffer" : 0,
            "byteLength" : 6048,
            "byteOffset" : 161952
        },
        {
            "buffer" : 0,
            "byteLength" : 14352,
            "byteOffset" : 168000
        },
        {
            "buffer" : 0,
            "byteLength" : 14352,
            "byteOffset" : 182352
        },
        {
            "buffer" : 0,
            "byteLength" : 9568,
            "byteOffset" : 196704
        },
        {
            "buffer" : 0,
            "byteLength" : 19136,
            "byteOffset" : 206272
        },
        {
            "buffer" : 0,
            "byteLength" : 9048,
            "byteOffset" : 225408
        }
    ],
    "buffers" : [
        {
            "byteLength" : 234456,
            "uri" : "data:application/octet-stream;base64,"
        }
    ]
}
