{
    "asset" : {
        "generator" : "Khronos glTF Blender I/O v1.3.48",
        "version" : "2.0"
    },
    "scene" : 0,
    "scenes" : [
        {
            "name" : "Scene",
            "nodes" : [
                0,
                1,
                2,
                3,
                4,
                5,
                6,
                7
            ]
        }
    ],
    "nodes" : [
        {
            "mesh" : 0,
            "name" : "0-base",
            "rotation" : [
                0,
                0,
                0,
                -1
            ]
        },
        {
            "mesh" : 1,
            "name" : "1-cabine",
            "rotation" : [
                0,
                0,
                0,
                -1
            ]
        },
        {
            "mesh" : 2,
            "name" : "2-bras_0",
            "rotation" : [
                -0.3568320870399475,
                0,
                0,
                -0.9341686367988586
            ],
            "translation" : [
                0.25,
                0.3752937912940979,
                -0.06564338505268097
            ]
        },
        {
            "mesh" : 3,
            "name" : "3-bras_1",
            "rotation" : [
                0.7555494904518127,
                0,
                0,
                -0.6550915837287903
            ],
            "translation" : [
                0.24999918043613434,
                4.138484954833984,
                -4.2606964111328125
            ]
        },
        {
            "mesh" : 4,
            "name" : "4-godet",
            "rotation" : [
                -0.7071068286895752,
                0,
                0,
                0.7071068286895752
            ],
            "translation" : [
                0.24999888241291046,
                0.550054132938385,
                -3.7528202533721924
            ]
        },
        {
            "name" : "Empty",
            "rotation" : [
                0.5,
                0.5,
                -0.5,
                0.4999999701976776
            ],
            "scale" : [
                3.4062604904174805,
                3.4062604904174805,
                3.4062604904174805
            ],
            "translation" : [
                0,
                -0.6259104013442993,
                0.33317944407463074
            ]
        },
        {
            "name" : "Empty.001",
            "rotation" : [
                0,
                0.7071068286895752,
                0,
                0.7071068286895752
            ],
            "scale" : [
                3.4062604904174805,
                3.4062604904174805,
                3.4062604904174805
            ],
            "translation" : [
                -3.288217067718506,
                0,
                0.33317941427230835
            ]
        },
        {
            "name" : "A-measure",
            "rotation" : [
                0,
                1,
                0,
                -1.6292068494294654e-07
            ]
        }
    ],
    "materials" : [
        {
            "doubleSided" : true,
            "emissiveFactor" : [
                0,
                0,
                0
            ],
            "name" : "black",
            "pbrMetallicRoughness" : {
                "baseColorFactor" : [
                    0.01599513180553913,
                    0.01599513180553913,
                    0.01599513180553913,
                    1
                ],
                "metallicFactor" : 0,
                "roughnessFactor" : 0.4000000059604645
            }
        },
        {
            "doubleSided" : true,
            "emissiveFactor" : [
                0,
                0,
                0
            ],
            "name" : "yellow",
            "pbrMetallicRoughness" : {
                "baseColorFactor" : [
                    0.8000000715255737,
                    0.5278224349021912,
                    0.032066140323877335,
                    1
                ],
                "metallicFactor" : 0,
                "roughnessFactor" : 0.5
            }
        },
        {
            "doubleSided" : true,
            "emissiveFactor" : [
                0,
                0,
                0
            ],
            "name" : "blue",
            "pbrMetallicRoughness" : {
                "baseColorFactor" : [
                    0.11435540020465851,
                    0.710770308971405,
                    0.8000000715255737,
                    1
                ],
                "metallicFactor" : 0,
                "roughnessFactor" : 0.5
            }
        }
    ],
    "meshes" : [
        {
            "name" : "Cube",
            "primitives" : [
                {
                    "attributes" : {
                        "POSITION" : 0,
                        "NORMAL" : 1,
                        "TEXCOORD_0" : 2
                    },
                    "indices" : 3,
                    "material" : 0
                }
            ]
        },
        {
            "name" : "Cube.001",
            "primitives" : [
                {
                    "attributes" : {
                        "POSITION" : 4,
                        "NORMAL" : 5,
                        "TEXCOORD_0" : 6
                    },
                    "indices" : 7,
                    "material" : 1
                },
                {
                    "attributes" : {
                        "POSITION" : 8,
                        "NORMAL" : 9,
                        "TEXCOORD_0" : 10
                    },
                    "indices" : 11,
                    "material" : 0
                },
                {
                    "attributes" : {
                        "POSITION" : 12,
                        "NORMAL" : 13,
                        "TEXCOORD_0" : 14
                    },
                    "indices" : 15,
                    "material" : 2
                }
            ]
        },
        {
            "name" : "Cube.002",
            "primitives" : [
                {
                    "attributes" : {
                        "POSITION" : 16,
                        "NORMAL" : 17,
                        "TEXCOORD_0" : 18
                    },
                    "indices" : 19,
                    "material" : 1
                }
            ]
        },
        {
            "name" : "Cube.003",
            "primitives" : [
                {
                    "attributes" : {
                        "POSITION" : 20,
                        "NORMAL" : 21,
                        "TEXCOORD_0" : 22
                    },
                    "indices" : 19,
                    "material" : 1
                }
            ]
        },
        {
            "name" : "Cube.004",
            "primitives" : [
                {
                    "attributes" : {
                        "POSITION" : 23,
                        "NORMAL" : 24,
                        "TEXCOORD_0" : 25
                    },
                    "indices" : 26,
                    "material" : 0
                }
            ]
        }
    ],
    "accessors" : [
        {
            "bufferView" : 0,
            "componentType" : 5126,
            "count" : 56,
            "max" : [
                1.1999311447143555,
                0.29867345094680786,
                1.7027496099472046
            ],
            "min" : [
                -1.1999309062957764,
                -0.29867345094680786,
                -1.7027496099472046
            ],
            "type" : "VEC3"
        },
        {
            "bufferView" : 1,
            "componentType" : 5126,
            "count" : 56,
            "type" : "VEC3"
        },
        {
            "bufferView" : 2,
            "componentType" : 5126,
            "count" : 56,
            "type" : "VEC2"
        },
        {
            "bufferView" : 3,
            "componentType" : 5123,
            "count" : 300,
            "type" : "SCALAR"
        },
        {
            "bufferView" : 4,
            "componentType" : 5126,
            "count" : 62,
            "max" : [
                1.1219569444656372,
                2.1457180976867676,
                1.3548158407211304
            ],
            "min" : [
                -1.1219569444656372,
                0.3387039303779602,
                -1.3799999952316284
            ],
            "type" : "VEC3"
        },
        {
            "bufferView" : 5,
            "componentType" : 5126,
            "count" : 62,
            "type" : "VEC3"
        },
        {
            "bufferView" : 6,
            "componentType" : 5126,
            "count" : 62,
            "type" : "VEC2"
        },
        {
            "bufferView" : 7,
            "componentType" : 5123,
            "count" : 300,
            "type" : "SCALAR"
        },
        {
            "bufferView" : 8,
            "componentType" : 5126,
            "count" : 48,
            "max" : [
                0.010648097842931747,
                2.0257179737091064,
                0.060000088065862656
            ],
            "min" : [
                -1.1817798614501953,
                1.233318567276001,
                -1.424422264099121
            ],
            "type" : "VEC3"
        },
        {
            "bufferView" : 9,
            "componentType" : 5126,
            "count" : 48,
            "type" : "VEC3"
        },
        {
            "bufferView" : 10,
            "componentType" : 5126,
            "count" : 48,
            "type" : "VEC2"
        },
        {
            "bufferView" : 11,
            "componentType" : 5123,
            "count" : 216,
            "type" : "SCALAR"
        },
        {
            "bufferView" : 12,
            "componentType" : 5126,
            "count" : 8,
            "max" : [
                -0.019351903349161148,
                1.9477179050445557,
                -0.010526750236749649
            ],
            "min" : [
                -1.1488683223724365,
                1.3231120109558105,
                -1.3815747499465942
            ],
            "type" : "VEC3"
        },
        {
            "bufferView" : 13,
            "componentType" : 5126,
            "count" : 8,
            "type" : "VEC3"
        },
        {
            "bufferView" : 14,
            "componentType" : 5126,
            "count" : 8,
            "type" : "VEC2"
        },
        {
            "bufferView" : 15,
            "componentType" : 5123,
            "count" : 18,
            "type" : "SCALAR"
        },
        {
            "bufferView" : 16,
            "componentType" : 5126,
            "count" : 14,
            "max" : [
                0.14999999105930328,
                0.14999999105930328,
                0
            ],
            "min" : [
                -0.14999999105930328,
                -0.15000005066394806,
                -5.6429057121276855
            ],
            "type" : "VEC3"
        },
        {
            "bufferView" : 17,
            "componentType" : 5126,
            "count" : 14,
            "type" : "VEC3"
        },
        {
            "bufferView" : 18,
            "componentType" : 5126,
            "count" : 14,
            "type" : "VEC2"
        },
        {
            "bufferView" : 19,
            "componentType" : 5123,
            "count" : 36,
            "type" : "SCALAR"
        },
        {
            "bufferView" : 20,
            "componentType" : 5126,
            "count" : 14,
            "max" : [
                0.09999999403953552,
                0.15000002086162567,
                0
            ],
            "min" : [
                -0.09999999403953552,
                -0.14999999105930328,
                -3.755060911178589
            ],
            "type" : "VEC3"
        },
        {
            "bufferView" : 21,
            "componentType" : 5126,
            "count" : 14,
            "type" : "VEC3"
        },
        {
            "bufferView" : 22,
            "componentType" : 5126,
            "count" : 14,
            "type" : "VEC2"
        },
        {
            "bufferView" : 23,
            "componentType" : 5126,
            "count" : 54,
            "max" : [
                0.40932345390319824,
                0.44937944412231445,
                0
            ],
            "min" : [
                -0.40932321548461914,
                -0.9680129289627075,
                -1.4443161487579346
            ],
            "type" : "VEC3"
        },
        {
            "bufferView" : 24,
            "componentType" : 5126,
            "count" : 54,
            "type" : "VEC3"
        },
        {
            "bufferView" : 25,
            "componentType" : 5126,
            "count" : 54,
            "type" : "VEC2"
        },
        {
            "bufferView" : 26,
            "componentType" : 5123,
            "count" : 216,
            "type" : "SCALAR"
        }
    ],
    "bufferViews" : [
        {
            "buffer" : 0,
            "byteLength" : 672,
            "byteOffset" : 0
        },
        {
            "buffer" : 0,
            "byteLength" : 672,
            "byteOffset" : 672
        },
        {
            "buffer" : 0,
            "byteLength" : 448,
            "byteOffset" : 1344
        },
        {
            "buffer" : 0,
            "byteLength" : 600,
            "byteOffset" : 1792
        },
        {
            "buffer" : 0,
            "byteLength" : 744,
            "byteOffset" : 2392
        },
        {
            "buffer" : 0,
            "byteLength" : 744,
            "byteOffset" : 3136
        },
        {
            "buffer" : 0,
            "byteLength" : 496,
            "byteOffset" : 3880
        },
        {
            "buffer" : 0,
            "byteLength" : 600,
            "byteOffset" : 4376
        },
        {
            "buffer" : 0,
            "byteLength" : 576,
            "byteOffset" : 4976
        },
        {
            "buffer" : 0,
            "byteLength" : 576,
            "byteOffset" : 5552
        },
        {
            "buffer" : 0,
            "byteLength" : 384,
            "byteOffset" : 6128
        },
        {
            "buffer" : 0,
            "byteLength" : 432,
            "byteOffset" : 6512
        },
        {
            "buffer" : 0,
            "byteLength" : 96,
            "byteOffset" : 6944
        },
        {
            "buffer" : 0,
            "byteLength" : 96,
            "byteOffset" : 7040
        },
        {
            "buffer" : 0,
            "byteLength" : 64,
            "byteOffset" : 7136
        },
        {
            "buffer" : 0,
            "byteLength" : 36,
            "byteOffset" : 7200
        },
        {
            "buffer" : 0,
            "byteLength" : 168,
            "byteOffset" : 7236
        },
        {
            "buffer" : 0,
            "byteLength" : 168,
            "byteOffset" : 7404
        },
        {
            "buffer" : 0,
            "byteLength" : 112,
            "byteOffset" : 7572
        },
        {
            "buffer" : 0,
            "byteLength" : 72,
            "byteOffset" : 7684
        },
        {
            "buffer" : 0,
            "byteLength" : 168,
            "byteOffset" : 7756
        },
        {
            "buffer" : 0,
            "byteLength" : 168,
            "byteOffset" : 7924
        },
        {
            "buffer" : 0,
            "byteLength" : 112,
            "byteOffset" : 8092
        },
        {
            "buffer" : 0,
            "byteLength" : 648,
            "byteOffset" : 8204
        },
        {
            "buffer" : 0,
            "byteLength" : 648,
            "byteOffset" : 8852
        },
        {
            "buffer" : 0,
            "byteLength" : 432,
            "byteOffset" : 9500
        },
        {
            "buffer" : 0,
            "byteLength" : 432,
            "byteOffset" : 9932
        }
    ],
    "buffers" : [
        {
            "byteLength" : 10364,
            "uri" : "data:application/octet-stream;base64,"
        }
    ]
}
