{
    "asset" : {
        "generator" : "Khronos glTF Blender I/O v1.3.48",
        "version" : "2.0"
    },
    "scene" : 0,
    "scenes" : [
        {
            "name" : "Scene",
            "nodes" : [
                0,
                1,
                2,
                3,
                4,
                5,
                6,
                7
            ]
        }
    ],
    "nodes" : [
        {
            "mesh" : 0,
            "name" : "0-base",
            "rotation" : [
                0,
                0,
                0,
                -1
            ]
        },
        {
            "mesh" : 1,
            "name" : "1-cabine",
            "rotation" : [
                0,
                0,
                0,
                -1
            ]
        },
        {
            "mesh" : 2,
            "name" : "2-bras_0",
            "rotation" : [
                -0.3568320870399475,
                0,
                0,
                -0.9341686367988586
            ],
            "translation" : [
                0.25,
                0.3752937912940979,
                -0.06564338505268097
            ]
        },
        {
            "mesh" : 3,
            "name" : "3-bras_1",
            "rotation" : [
                0.7555494904518127,
                0,
                0,
                -0.6550915837287903
            ],
            "translation" : [
                0.24999918043613434,
                4.138484954833984,
                -4.2606964111328125
            ]
        },
        {
            "mesh" : 4,
            "name" : "4-godet",
            "rotation" : [
                -0.7071068286895752,
                0,
                0,
                0.7071068286895752
            ],
            "translation" : [
                0.24999888241291046,
                0.550054132938385,
                -3.7528202533721924
            ]
        },
        {
            "name" : "Empty",
            "rotation" : [
                0.5,
                0.5,
                -0.5,
                0.4999999701976776
            ],
            "scale" : [
                3.4062604904174805,
                3.4062604904174805,
                3.4062604904174805
            ],
            "translation" : [
                0,
                -0.6259104013442993,
                0.33317944407463074
            ]
        },
        {
            "name" : "Empty.001",
            "rotation" : [
                0,
                0.7071068286895752,
                0,
                0.7071068286895752
            ],
            "scale" : [
                3.4062604904174805,
                3.4062604904174805,
                3.4062604904174805
            ],
            "translation" : [
                -3.288217067718506,
                0,
                0.33317941427230835
            ]
        },
        {
            "name" : "A-measure",
            "rotation" : [
                0,
                1,
                0,
                -1.6292068494294654e-07
            ]
        }
    ],
    "materials" : [
        {
            "doubleSided" : true,
            "emissiveFactor" : [
                0,
                0,
                0
            ],
            "name" : "Material",
            "pbrMetallicRoughness" : {
                "baseColorFactor" : [
                    0.800000011920929,
                    0.800000011920929,
                    0.800000011920929,
                    1
                ],
                "metallicFactor" : 0,
                "roughnessFactor" : 0.4000000059604645
            }
        }
    ],
    "meshes" : [
        {
            "name" : "Cube",
            "primitives" : [
                {
                    "attributes" : {
                        "POSITION" : 0,
                        "NORMAL" : 1,
                        "TEXCOORD_0" : 2
                    },
                    "indices" : 3,
                    "material" : 0
                }
            ]
        },
        {
            "name" : "Cube.001",
            "primitives" : [
                {
                    "attributes" : {
                        "POSITION" : 4,
                        "NORMAL" : 5,
                        "TEXCOORD_0" : 6
                    },
                    "indices" : 7
                }
            ]
        },
        {
            "name" : "Cube.002",
            "primitives" : [
                {
                    "attributes" : {
                        "POSITION" : 8,
                        "NORMAL" : 9,
                        "TEXCOORD_0" : 10
                    },
                    "indices" : 11
                }
            ]
        },
        {
            "name" : "Cube.003",
            "primitives" : [
                {
                    "attributes" : {
                        "POSITION" : 12,
                        "NORMAL" : 13,
                        "TEXCOORD_0" : 14
                    },
                    "indices" : 11
                }
            ]
        },
        {
            "name" : "Cube.004",
            "primitives" : [
                {
                    "attributes" : {
                        "POSITION" : 15,
                        "NORMAL" : 16,
                        "TEXCOORD_0" : 17
                    },
                    "indices" : 18
                }
            ]
        }
    ],
    "accessors" : [
        {
            "bufferView" : 0,
            "componentType" : 5126,
            "count" : 181,
            "max" : [
                1.1999311447143555,
                0.29867345094680786,
                1.7027496099472046
            ],
            "min" : [
                -1.1999309062957764,
                -0.29867345094680786,
                -1.7027496099472046
            ],
            "type" : "VEC3"
        },
        {
            "bufferView" : 1,
            "componentType" : 5126,
            "count" : 181,
            "type" : "VEC3"
        },
        {
            "bufferView" : 2,
            "componentType" : 5126,
            "count" : 181,
            "type" : "VEC2"
        },
        {
            "bufferView" : 3,
            "componentType" : 5123,
            "count" : 300,
            "type" : "SCALAR"
        },
        {
            "bufferView" : 4,
            "componentType" : 5126,
            "count" : 328,
            "max" : [
                1.1219569444656372,
                2.1457180976867676,
                1.3548158407211304
            ],
            "min" : [
                -1.1817798614501953,
                0.3387039303779602,
                -1.424422264099121
            ],
            "type" : "VEC3"
        },
        {
            "bufferView" : 5,
            "componentType" : 5126,
            "count" : 328,
            "type" : "VEC3"
        },
        {
            "bufferView" : 6,
            "componentType" : 5126,
            "count" : 328,
            "type" : "VEC2"
        },
        {
            "bufferView" : 7,
            "componentType" : 5123,
            "count" : 516,
            "type" : "SCALAR"
        },
        {
            "bufferView" : 8,
            "componentType" : 5126,
            "count" : 24,
            "max" : [
                0.14999999105930328,
                0.14999999105930328,
                0
            ],
            "min" : [
                -0.14999999105930328,
                -0.15000005066394806,
                -5.6429057121276855
            ],
            "type" : "VEC3"
        },
        {
            "bufferView" : 9,
            "componentType" : 5126,
            "count" : 24,
            "type" : "VEC3"
        },
        {
            "bufferView" : 10,
            "componentType" : 5126,
            "count" : 24,
            "type" : "VEC2"
        },
        {
            "bufferView" : 11,
            "componentType" : 5123,
            "count" : 36,
            "type" : "SCALAR"
        },
        {
            "bufferView" : 12,
            "componentType" : 5126,
            "count" : 24,
            "max" : [
                0.09999999403953552,
                0.15000002086162567,
                0
            ],
            "min" : [
                -0.09999999403953552,
                -0.14999999105930328,
                -3.755060911178589
            ],
            "type" : "VEC3"
        },
        {
            "bufferView" : 13,
            "componentType" : 5126,
            "count" : 24,
            "type" : "VEC3"
        },
        {
            "bufferView" : 14,
            "componentType" : 5126,
            "count" : 24,
            "type" : "VEC2"
        },
        {
            "bufferView" : 15,
            "componentType" : 5126,
            "count" : 72,
            "max" : [
                0.40932345390319824,
                0.44937944412231445,
                0
            ],
            "min" : [
                -0.40932321548461914,
                -1.0176806449890137,
                -1.4443161487579346
            ],
            "type" : "VEC3"
        },
        {
            "bufferView" : 16,
            "componentType" : 5126,
            "count" : 72,
            "type" : "VEC3"
        },
        {
            "bufferView" : 17,
            "componentType" : 5126,
            "count" : 72,
            "type" : "VEC2"
        },
        {
            "bufferView" : 18,
            "componentType" : 5123,
            "count" : 108,
            "type" : "SCALAR"
        }
    ],
    "bufferViews" : [
        {
            "buffer" : 0,
            "byteLength" : 2172,
            "byteOffset" : 0
        },
        {
            "buffer" : 0,
            "byteLength" : 2172,
            "byteOffset" : 2172
        },
        {
            "buffer" : 0,
            "byteLength" : 1448,
            "byteOffset" : 4344
        },
        {
            "buffer" : 0,
            "byteLength" : 600,
            "byteOffset" : 5792
        },
        {
            "buffer" : 0,
            "byteLength" : 3936,
            "byteOffset" : 6392
        },
        {
            "buffer" : 0,
            "byteLength" : 3936,
            "byteOffset" : 10328
        },
        {
            "buffer" : 0,
            "byteLength" : 2624,
            "byteOffset" : 14264
        },
        {
            "buffer" : 0,
            "byteLength" : 1032,
            "byteOffset" : 16888
        },
        {
            "buffer" : 0,
            "byteLength" : 288,
            "byteOffset" : 17920
        },
        {
            "buffer" : 0,
            "byteLength" : 288,
            "byteOffset" : 18208
        },
        {
            "buffer" : 0,
            "byteLength" : 192,
            "byteOffset" : 18496
        },
        {
            "buffer" : 0,
            "byteLength" : 72,
            "byteOffset" : 18688
        },
        {
            "buffer" : 0,
            "byteLength" : 288,
            "byteOffset" : 18760
        },
        {
            "buffer" : 0,
            "byteLength" : 288,
            "byteOffset" : 19048
        },
        {
            "buffer" : 0,
            "byteLength" : 192,
            "byteOffset" : 19336
        },
        {
            "buffer" : 0,
            "byteLength" : 864,
            "byteOffset" : 19528
        },
        {
            "buffer" : 0,
            "byteLength" : 864,
            "byteOffset" : 20392
        },
        {
            "buffer" : 0,
            "byteLength" : 576,
            "byteOffset" : 21256
        },
        {
            "buffer" : 0,
            "byteLength" : 216,
            "byteOffset" : 21832
        }
    ],
    "buffers" : [
        {
            "byteLength" : 22048,
            "uri" : "data:application/octet-stream;base64,"
        }
    ]
}
