{
    "asset" : {
        "generator" : "Khronos glTF Blender I/O v1.3.48",
        "version" : "2.0"
    },
    "scene" : 0,
    "scenes" : [
        {
            "name" : "Scene",
            "nodes" : [
                0,
                1,
                2,
                3,
                4
            ]
        }
    ],
    "nodes" : [
        {
            "mesh" : 0,
            "name" : "0-base"
        },
        {
            "mesh" : 1,
            "name" : "1-cabine",
            "translation" : [
                0,
                0.800000011920929,
                0
            ]
        },
        {
            "mesh" : 2,
            "name" : "2-bras_0",
            "translation" : [
                0,
                0.800000011920929,
                -1
            ]
        },
        {
            "mesh" : 3,
            "name" : "3-bras_1",
            "translation" : [
                0,
                0.800000011920929,
                -4
            ]
        },
        {
            "mesh" : 4,
            "name" : "4-godet",
            "translation" : [
                0,
                0.800000011920929,
                -7
            ]
        }
    ],
    "materials" : [
        {
            "doubleSided" : true,
            "emissiveFactor" : [
                0,
                0,
                0
            ],
            "name" : "Material",
            "pbrMetallicRoughness" : {
                "baseColorFactor" : [
                    0.800000011920929,
                    0.800000011920929,
                    0.800000011920929,
                    1
                ],
                "metallicFactor" : 0,
                "roughnessFactor" : 0.4000000059604645
            }
        }
    ],
    "meshes" : [
        {
            "name" : "Cube",
            "primitives" : [
                {
                    "attributes" : {
                        "POSITION" : 0,
                        "NORMAL" : 1,
                        "TEXCOORD_0" : 2
                    },
                    "indices" : 3,
                    "material" : 0
                }
            ]
        },
        {
            "name" : "Cube.001",
            "primitives" : [
                {
                    "attributes" : {
                        "POSITION" : 4,
                        "NORMAL" : 5,
                        "TEXCOORD_0" : 6
                    },
                    "indices" : 7
                }
            ]
        },
        {
            "name" : "Cube.002",
            "primitives" : [
                {
                    "attributes" : {
                        "POSITION" : 8,
                        "NORMAL" : 9,
                        "TEXCOORD_0" : 10
                    },
                    "indices" : 11
                }
            ]
        },
        {
            "name" : "Cube.003",
            "primitives" : [
                {
                    "attributes" : {
                        "POSITION" : 12,
                        "NORMAL" : 13,
                        "TEXCOORD_0" : 14
                    },
                    "indices" : 11
                }
            ]
        },
        {
            "name" : "Cube.004",
            "primitives" : [
                {
                    "attributes" : {
                        "POSITION" : 15,
                        "NORMAL" : 16,
                        "TEXCOORD_0" : 17
                    },
                    "indices" : 11
                }
            ]
        }
    ],
    "accessors" : [
        {
            "bufferView" : 0,
            "componentType" : 5126,
            "count" : 236,
            "max" : [
                1.3000001907348633,
                0.800000011920929,
                2
            ],
            "min" : [
                -1.2999999523162842,
                -0.5,
                -2
            ],
            "type" : "VEC3"
        },
        {
            "bufferView" : 1,
            "componentType" : 5126,
            "count" : 236,
            "type" : "VEC3"
        },
        {
            "bufferView" : 2,
            "componentType" : 5126,
            "count" : 236,
            "type" : "VEC2"
        },
        {
            "bufferView" : 3,
            "componentType" : 5123,
            "count" : 372,
            "type" : "SCALAR"
        },
        {
            "bufferView" : 4,
            "componentType" : 5126,
            "count" : 44,
            "max" : [
                0.5,
                1.5,
                1
            ],
            "min" : [
                -0.5,
                0,
                -1
            ],
            "type" : "VEC3"
        },
        {
            "bufferView" : 5,
            "componentType" : 5126,
            "count" : 44,
            "type" : "VEC3"
        },
        {
            "bufferView" : 6,
            "componentType" : 5126,
            "count" : 44,
            "type" : "VEC2"
        },
        {
            "bufferView" : 7,
            "componentType" : 5123,
            "count" : 84,
            "type" : "SCALAR"
        },
        {
            "bufferView" : 8,
            "componentType" : 5126,
            "count" : 24,
            "max" : [
                0.09999999403953552,
                0.14999999105930328,
                0
            ],
            "min" : [
                -0.09999999403953552,
                -0.14999999105930328,
                -3
            ],
            "type" : "VEC3"
        },
        {
            "bufferView" : 9,
            "componentType" : 5126,
            "count" : 24,
            "type" : "VEC3"
        },
        {
            "bufferView" : 10,
            "componentType" : 5126,
            "count" : 24,
            "type" : "VEC2"
        },
        {
            "bufferView" : 11,
            "componentType" : 5123,
            "count" : 36,
            "type" : "SCALAR"
        },
        {
            "bufferView" : 12,
            "componentType" : 5126,
            "count" : 24,
            "max" : [
                0.09999999403953552,
                0.14999999105930328,
                0
            ],
            "min" : [
                -0.09999999403953552,
                -0.14999999105930328,
                -3
            ],
            "type" : "VEC3"
        },
        {
            "bufferView" : 13,
            "componentType" : 5126,
            "count" : 24,
            "type" : "VEC3"
        },
        {
            "bufferView" : 14,
            "componentType" : 5126,
            "count" : 24,
            "type" : "VEC2"
        },
        {
            "bufferView" : 15,
            "componentType" : 5126,
            "count" : 24,
            "max" : [
                0.29999998211860657,
                0.04999999701976776,
                0
            ],
            "min" : [
                -0.29999998211860657,
                -0.04999999701976776,
                -0.800000011920929
            ],
            "type" : "VEC3"
        },
        {
            "bufferView" : 16,
            "componentType" : 5126,
            "count" : 24,
            "type" : "VEC3"
        },
        {
            "bufferView" : 17,
            "componentType" : 5126,
            "count" : 24,
            "type" : "VEC2"
        }
    ],
    "bufferViews" : [
        {
            "buffer" : 0,
            "byteLength" : 2832,
            "byteOffset" : 0
        },
        {
            "buffer" : 0,
            "byteLength" : 2832,
            "byteOffset" : 2832
        },
        {
            "buffer" : 0,
            "byteLength" : 1888,
            "byteOffset" : 5664
        },
        {
            "buffer" : 0,
            "byteLength" : 744,
            "byteOffset" : 7552
        },
        {
            "buffer" : 0,
            "byteLength" : 528,
            "byteOffset" : 8296
        },
        {
            "buffer" : 0,
            "byteLength" : 528,
            "byteOffset" : 8824
        },
        {
            "buffer" : 0,
            "byteLength" : 352,
            "byteOffset" : 9352
        },
        {
            "buffer" : 0,
            "byteLength" : 168,
            "byteOffset" : 9704
        },
        {
            "buffer" : 0,
            "byteLength" : 288,
            "byteOffset" : 9872
        },
        {
            "buffer" : 0,
            "byteLength" : 288,
            "byteOffset" : 10160
        },
        {
            "buffer" : 0,
            "byteLength" : 192,
            "byteOffset" : 10448
        },
        {
            "buffer" : 0,
            "byteLength" : 72,
            "byteOffset" : 10640
        },
        {
            "buffer" : 0,
            "byteLength" : 288,
            "byteOffset" : 10712
        },
        {
            "buffer" : 0,
            "byteLength" : 288,
            "byteOffset" : 11000
        },
        {
            "buffer" : 0,
            "byteLength" : 192,
            "byteOffset" : 11288
        },
        {
            "buffer" : 0,
            "byteLength" : 288,
            "byteOffset" : 11480
        },
        {
            "buffer" : 0,
            "byteLength" : 288,
            "byteOffset" : 11768
        },
        {
            "buffer" : 0,
            "byteLength" : 192,
            "byteOffset" : 12056
        }
    ],
    "buffers" : [
        {
            "byteLength" : 12248,
            "uri" : "data:application/octet-stream;base64,"
        }
    ]
}
