{
    "asset" : {
        "generator" : "Khronos glTF Blender I/O v1.3.48",
        "version" : "2.0"
    },
    "scene" : 0,
    "scenes" : [
        {
            "name" : "Scene",
            "nodes" : [
                0,
                1,
                2,
                3,
                4,
                5,
                6,
                7,
                8,
                9,
                10,
                11
            ]
        }
    ],
    "nodes" : [
        {
            "mesh" : 0,
            "name" : "02-body"
        },
        {
            "mesh" : 1,
            "name" : "00-upper-leg",
            "rotation" : [
                0,
                -0.7071068286895752,
                0,
                0.7071068286895752
            ],
            "translation" : [
                0.07999999821186066,
                0,
                0
            ]
        },
        {
            "mesh" : 2,
            "name" : "03-head",
            "translation" : [
                0,
                0.040900200605392456,
                -0.2505178153514862
            ]
        },
        {
            "mesh" : 3,
            "name" : "01-lower-leg",
            "rotation" : [
                0,
                -0.7071068286895752,
                0,
                0.7071068286895752
            ],
            "translation" : [
                0.3400000035762787,
                0,
                0
            ]
        },
        {
            "mesh" : 4,
            "name" : "04-tail-0",
            "rotation" : [
                0,
                0.9980310201644897,
                -0.06272262334823608,
                -2.828538185895013e-07
            ],
            "translation" : [
                0,
                0.03545709326863289,
                0.2809792459011078
            ]
        },
        {
            "mesh" : 5,
            "name" : "05-tail-1",
            "rotation" : [
                0,
                0.9980310201644897,
                -0.06272262334823608,
                -2.828538185895013e-07
            ],
            "translation" : [
                0,
                0.04876440018415451,
                0.38643282651901245
            ]
        },
        {
            "mesh" : 6,
            "name" : "06-tail-2",
            "rotation" : [
                0,
                0.9980310201644897,
                -0.06272262334823608,
                -2.828538185895013e-07
            ],
            "translation" : [
                0,
                0.06077459454536438,
                0.48160746693611145
            ]
        },
        {
            "mesh" : 7,
            "name" : "07-tail-3",
            "rotation" : [
                0,
                0.9980310201644897,
                -0.06272262334823608,
                -2.828538185895013e-07
            ],
            "translation" : [
                0,
                0.07155369967222214,
                0.5670263171195984
            ]
        },
        {
            "mesh" : 8,
            "name" : "08-tail-4",
            "rotation" : [
                0,
                0.9980310201644897,
                -0.06272262334823608,
                -2.828538185895013e-07
            ],
            "translation" : [
                0,
                0.08127277344465256,
                0.6440449357032776
            ]
        },
        {
            "mesh" : 9,
            "name" : "09-tail-5",
            "rotation" : [
                0,
                0.9980310201644897,
                -0.06272262334823608,
                -2.828538185895013e-07
            ],
            "translation" : [
                0,
                0.09000175446271896,
                0.7132176756858826
            ]
        },
        {
            "mesh" : 10,
            "name" : "10-tail-6",
            "rotation" : [
                0,
                0.9980310201644897,
                -0.06272262334823608,
                -2.828538185895013e-07
            ],
            "translation" : [
                0,
                0.09782236069440842,
                0.7751919627189636
            ]
        },
        {
            "mesh" : 11,
            "name" : "11-antenna",
            "translation" : [
                0.045040544122457504,
                0.08223310112953186,
                -0.31516239047050476
            ]
        }
    ],
    "meshes" : [
        {
            "name" : "3-body",
            "primitives" : [
                {
                    "attributes" : {
                        "POSITION" : 0,
                        "NORMAL" : 1,
                        "TEXCOORD_0" : 2
                    },
                    "indices" : 3
                }
            ]
        },
        {
            "name" : "0-upper-leg",
            "primitives" : [
                {
                    "attributes" : {
                        "POSITION" : 4,
                        "NORMAL" : 5,
                        "TEXCOORD_0" : 6
                    },
                    "indices" : 7
                }
            ]
        },
        {
            "name" : "4-head",
            "primitives" : [
                {
                    "attributes" : {
                        "POSITION" : 8,
                        "NORMAL" : 9,
                        "TEXCOORD_0" : 10
                    },
                    "indices" : 11
                }
            ]
        },
        {
            "name" : "1-lower-leg",
            "primitives" : [
                {
                    "attributes" : {
                        "POSITION" : 12,
                        "NORMAL" : 13,
                        "TEXCOORD_0" : 14
                    },
                    "indices" : 15
                }
            ]
        },
        {
            "name" : "4-tail-0",
            "primitives" : [
                {
                    "attributes" : {
                        "POSITION" : 16,
                        "NORMAL" : 17,
                        "TEXCOORD_0" : 18
                    },
                    "indices" : 19
                }
            ]
        },
        {
            "name" : "4-tail-1",
            "primitives" : [
                {
                    "attributes" : {
                        "POSITION" : 20,
                        "NORMAL" : 21,
                        "TEXCOORD_0" : 22
                    },
                    "indices" : 19
                }
            ]
        },
        {
            "name" : "4-tail-2",
            "primitives" : [
                {
                    "attributes" : {
                        "POSITION" : 23,
                        "NORMAL" : 24,
                        "TEXCOORD_0" : 25
                    },
                    "indices" : 19
                }
            ]
        },
        {
            "name" : "4-tail-3",
            "primitives" : [
                {
                    "attributes" : {
                        "POSITION" : 26,
                        "NORMAL" : 27,
                        "TEXCOORD_0" : 28
                    },
                    "indices" : 29
                }
            ]
        },
        {
            "name" : "4-tail-4",
            "primitives" : [
                {
                    "attributes" : {
                        "POSITION" : 30,
                        "NORMAL" : 31,
                        "TEXCOORD_0" : 32
                    },
                    "indices" : 33
                }
            ]
        },
        {
            "name" : "4-tail-5",
            "primitives" : [
                {
                    "attributes" : {
                        "POSITION" : 34,
                        "NORMAL" : 35,
                        "TEXCOORD_0" : 36
                    },
                    "indices" : 37
                }
            ]
        },
        {
            "name" : "4-tail-6",
            "primitives" : [
                {
                    "attributes" : {
                        "POSITION" : 38,
                        "NORMAL" : 39,
                        "TEXCOORD_0" : 40
                    },
                    "indices" : 19
                }
            ]
        },
        {
            "name" : "Cube",
            "primitives" : [
                {
                    "attributes" : {
                        "POSITION" : 41,
                        "NORMAL" : 42,
                        "TEXCOORD_0" : 43
                    },
                    "indices" : 44
                }
            ]
        }
    ],
    "accessors" : [
        {
            "bufferView" : 0,
            "componentType" : 5126,
            "count" : 172,
            "max" : [
                0.1267320215702057,
                0.10078444331884384,
                0.30606862902641296
            ],
            "min" : [
                -0.1267320215702057,
                -0.057798340916633606,
                -0.2774975299835205
            ],
            "type" : "VEC3"
        },
        {
            "bufferView" : 1,
            "componentType" : 5126,
            "count" : 172,
            "type" : "VEC3"
        },
        {
            "bufferView" : 2,
            "componentType" : 5126,
            "count" : 172,
            "type" : "VEC2"
        },
        {
            "bufferView" : 3,
            "componentType" : 5123,
            "count" : 684,
            "type" : "SCALAR"
        },
        {
            "bufferView" : 4,
            "componentType" : 5126,
            "count" : 113,
            "max" : [
                0.03284624218940735,
                0.07088920474052429,
                0.009513497352600098
            ],
            "min" : [
                -0.02816740795969963,
                -0.016458740457892418,
                -0.264805406332016
            ],
            "type" : "VEC3"
        },
        {
            "bufferView" : 5,
            "componentType" : 5126,
            "count" : 113,
            "type" : "VEC3"
        },
        {
            "bufferView" : 6,
            "componentType" : 5126,
            "count" : 113,
            "type" : "VEC2"
        },
        {
            "bufferView" : 7,
            "componentType" : 5123,
            "count" : 420,
            "type" : "SCALAR"
        },
        {
            "bufferView" : 8,
            "componentType" : 5126,
            "count" : 43,
            "max" : [
                0.07510817795991898,
                0.06855300813913345,
                0.023640213534235954
            ],
            "min" : [
                -0.07510816305875778,
                -0.06855300813913345,
                -0.17889857292175293
            ],
            "type" : "VEC3"
        },
        {
            "bufferView" : 9,
            "componentType" : 5126,
            "count" : 43,
            "type" : "VEC3"
        },
        {
            "bufferView" : 10,
            "componentType" : 5126,
            "count" : 43,
            "type" : "VEC2"
        },
        {
            "bufferView" : 11,
            "componentType" : 5123,
            "count" : 144,
            "type" : "SCALAR"
        },
        {
            "bufferView" : 12,
            "componentType" : 5126,
            "count" : 98,
            "max" : [
                0.02403324842453003,
                0.02847309596836567,
                0.005186846479773521
            ],
            "min" : [
                -0.02403326705098152,
                -0.029597152024507523,
                -0.30787044763565063
            ],
            "type" : "VEC3"
        },
        {
            "bufferView" : 13,
            "componentType" : 5126,
            "count" : 98,
            "type" : "VEC3"
        },
        {
            "bufferView" : 14,
            "componentType" : 5126,
            "count" : 98,
            "type" : "VEC2"
        },
        {
            "bufferView" : 15,
            "componentType" : 5123,
            "count" : 420,
            "type" : "SCALAR"
        },
        {
            "bufferView" : 16,
            "componentType" : 5126,
            "count" : 48,
            "max" : [
                0.08293548226356506,
                0.0644470751285553,
                0.0479518361389637
            ],
            "min" : [
                -0.08293548226356506,
                -0.06457673013210297,
                -0.14684997498989105
            ],
            "type" : "VEC3"
        },
        {
            "bufferView" : 17,
            "componentType" : 5126,
            "count" : 48,
            "type" : "VEC3"
        },
        {
            "bufferView" : 18,
            "componentType" : 5126,
            "count" : 48,
            "type" : "VEC2"
        },
        {
            "bufferView" : 19,
            "componentType" : 5123,
            "count" : 144,
            "type" : "SCALAR"
        },
        {
            "bufferView" : 20,
            "componentType" : 5126,
            "count" : 48,
            "max" : [
                0.054822422564029694,
                0.046694736927747726,
                0.03649222478270531
            ],
            "min" : [
                -0.054822422564029694,
                -0.046694736927747726,
                -0.13216497004032135
            ],
            "type" : "VEC3"
        },
        {
            "bufferView" : 21,
            "componentType" : 5126,
            "count" : 48,
            "type" : "VEC3"
        },
        {
            "bufferView" : 22,
            "componentType" : 5126,
            "count" : 48,
            "type" : "VEC2"
        },
        {
            "bufferView" : 23,
            "componentType" : 5126,
            "count" : 48,
            "max" : [
                0.049340181052684784,
                0.042025260627269745,
                0.03284300118684769
            ],
            "min" : [
                -0.049340181052684784,
                -0.042025260627269745,
                -0.11894847452640533
            ],
            "type" : "VEC3"
        },
        {
            "bufferView" : 24,
            "componentType" : 5126,
            "count" : 48,
            "type" : "VEC3"
        },
        {
            "bufferView" : 25,
            "componentType" : 5126,
            "count" : 48,
            "type" : "VEC2"
        },
        {
            "bufferView" : 26,
            "componentType" : 5126,
            "count" : 64,
            "max" : [
                0.0891069546341896,
                0.03782273456454277,
                0.029558703303337097
            ],
            "min" : [
                -0.0891069546341896,
                -0.03782273456454277,
                -0.10705362260341644
            ],
            "type" : "VEC3"
        },
        {
            "bufferView" : 27,
            "componentType" : 5126,
            "count" : 64,
            "type" : "VEC3"
        },
        {
            "bufferView" : 28,
            "componentType" : 5126,
            "count" : 64,
            "type" : "VEC2"
        },
        {
            "bufferView" : 29,
            "componentType" : 5123,
            "count" : 192,
            "type" : "SCALAR"
        },
        {
            "bufferView" : 30,
            "componentType" : 5126,
            "count" : 82,
            "max" : [
                0.09996552765369415,
                0.034040458500385284,
                0.02660283073782921
            ],
            "min" : [
                -0.09996552765369415,
                -0.034040458500385284,
                -0.09634825587272644
            ],
            "type" : "VEC3"
        },
        {
            "bufferView" : 31,
            "componentType" : 5126,
            "count" : 82,
            "type" : "VEC3"
        },
        {
            "bufferView" : 32,
            "componentType" : 5126,
            "count" : 82,
            "type" : "VEC2"
        },
        {
            "bufferView" : 33,
            "componentType" : 5123,
            "count" : 276,
            "type" : "SCALAR"
        },
        {
            "bufferView" : 34,
            "componentType" : 5126,
            "count" : 64,
            "max" : [
                0.07363895326852798,
                0.030636413022875786,
                0.023942546918988228
            ],
            "min" : [
                -0.07363895326852798,
                -0.030636413022875786,
                -0.08671343326568604
            ],
            "type" : "VEC3"
        },
        {
            "bufferView" : 35,
            "componentType" : 5126,
            "count" : 64,
            "type" : "VEC3"
        },
        {
            "bufferView" : 36,
            "componentType" : 5126,
            "count" : 64,
            "type" : "VEC2"
        },
        {
            "bufferView" : 37,
            "componentType" : 5123,
            "count" : 192,
            "type" : "SCALAR"
        },
        {
            "bufferView" : 38,
            "componentType" : 5126,
            "count" : 48,
            "max" : [
                0.032372068613767624,
                0.027572771534323692,
                0.02154829353094101
            ],
            "min" : [
                -0.032372068613767624,
                -0.027572771534323692,
                -0.14654172956943512
            ],
            "type" : "VEC3"
        },
        {
            "bufferView" : 39,
            "componentType" : 5126,
            "count" : 48,
            "type" : "VEC3"
        },
        {
            "bufferView" : 40,
            "componentType" : 5126,
            "count" : 48,
            "type" : "VEC2"
        },
        {
            "bufferView" : 41,
            "componentType" : 5126,
            "count" : 26,
            "max" : [
                0.0053413850255310535,
                0.03727774694561958,
                0.002590871648862958
            ],
            "min" : [
                -0.0053413850255310535,
                -0.00508906738832593,
                -0.40207526087760925
            ],
            "type" : "VEC3"
        },
        {
            "bufferView" : 42,
            "componentType" : 5126,
            "count" : 26,
            "type" : "VEC3"
        },
        {
            "bufferView" : 43,
            "componentType" : 5126,
            "count" : 26,
            "type" : "VEC2"
        },
        {
            "bufferView" : 44,
            "componentType" : 5123,
            "count" : 84,
            "type" : "SCALAR"
        }
    ],
    "bufferViews" : [
        {
            "buffer" : 0,
            "byteLength" : 2064,
            "byteOffset" : 0
        },
        {
            "buffer" : 0,
            "byteLength" : 2064,
            "byteOffset" : 2064
        },
        {
            "buffer" : 0,
            "byteLength" : 1376,
            "byteOffset" : 4128
        },
        {
            "buffer" : 0,
            "byteLength" : 1368,
            "byteOffset" : 5504
        },
        {
            "buffer" : 0,
            "byteLength" : 1356,
            "byteOffset" : 6872
        },
        {
            "buffer" : 0,
            "byteLength" : 1356,
            "byteOffset" : 8228
        },
        {
            "buffer" : 0,
            "byteLength" : 904,
            "byteOffset" : 9584
        },
        {
            "buffer" : 0,
            "byteLength" : 840,
            "byteOffset" : 10488
        },
        {
            "buffer" : 0,
            "byteLength" : 516,
            "byteOffset" : 11328
        },
        {
            "buffer" : 0,
            "byteLength" : 516,
            "byteOffset" : 11844
        },
        {
            "buffer" : 0,
            "byteLength" : 344,
            "byteOffset" : 12360
        },
        {
            "buffer" : 0,
            "byteLength" : 288,
            "byteOffset" : 12704
        },
        {
            "buffer" : 0,
            "byteLength" : 1176,
            "byteOffset" : 12992
        },
        {
            "buffer" : 0,
            "byteLength" : 1176,
            "byteOffset" : 14168
        },
        {
            "buffer" : 0,
            "byteLength" : 784,
            "byteOffset" : 15344
        },
        {
            "buffer" : 0,
            "byteLength" : 840,
            "byteOffset" : 16128
        },
        {
            "buffer" : 0,
            "byteLength" : 576,
            "byteOffset" : 16968
        },
        {
            "buffer" : 0,
            "byteLength" : 576,
            "byteOffset" : 17544
        },
        {
            "buffer" : 0,
            "byteLength" : 384,
            "byteOffset" : 18120
        },
        {
            "buffer" : 0,
            "byteLength" : 288,
            "byteOffset" : 18504
        },
        {
            "buffer" : 0,
            "byteLength" : 576,
            "byteOffset" : 18792
        },
        {
            "buffer" : 0,
            "byteLength" : 576,
            "byteOffset" : 19368
        },
        {
            "buffer" : 0,
            "byteLength" : 384,
            "byteOffset" : 19944
        },
        {
            "buffer" : 0,
            "byteLength" : 576,
            "byteOffset" : 20328
        },
        {
            "buffer" : 0,
            "byteLength" : 576,
            "byteOffset" : 20904
        },
        {
            "buffer" : 0,
            "byteLength" : 384,
            "byteOffset" : 21480
        },
        {
            "buffer" : 0,
            "byteLength" : 768,
            "byteOffset" : 21864
        },
        {
            "buffer" : 0,
            "byteLength" : 768,
            "byteOffset" : 22632
        },
        {
            "buffer" : 0,
            "byteLength" : 512,
            "byteOffset" : 23400
        },
        {
            "buffer" : 0,
            "byteLength" : 384,
            "byteOffset" : 23912
        },
        {
            "buffer" : 0,
            "byteLength" : 984,
            "byteOffset" : 24296
        },
        {
            "buffer" : 0,
            "byteLength" : 984,
            "byteOffset" : 25280
        },
        {
            "buffer" : 0,
            "byteLength" : 656,
            "byteOffset" : 26264
        },
        {
            "buffer" : 0,
            "byteLength" : 552,
            "byteOffset" : 26920
        },
        {
            "buffer" : 0,
            "byteLength" : 768,
            "byteOffset" : 27472
        },
        {
            "buffer" : 0,
            "byteLength" : 768,
            "byteOffset" : 28240
        },
        {
            "buffer" : 0,
            "byteLength" : 512,
            "byteOffset" : 29008
        },
        {
            "buffer" : 0,
            "byteLength" : 384,
            "byteOffset" : 29520
        },
        {
            "buffer" : 0,
            "byteLength" : 576,
            "byteOffset" : 29904
        },
        {
            "buffer" : 0,
            "byteLength" : 576,
            "byteOffset" : 30480
        },
        {
            "buffer" : 0,
            "byteLength" : 384,
            "byteOffset" : 31056
        },
        {
            "buffer" : 0,
            "byteLength" : 312,
            "byteOffset" : 31440
        },
        {
            "buffer" : 0,
            "byteLength" : 312,
            "byteOffset" : 31752
        },
        {
            "buffer" : 0,
            "byteLength" : 208,
            "byteOffset" : 32064
        },
        {
            "buffer" : 0,
            "byteLength" : 168,
            "byteOffset" : 32272
        }
    ],
    "buffers" : [
        {
            "byteLength" : 32440,
            "uri" : "data:application/octet-stream;base64,"
        }
    ]
}
