{
    "asset" : {
        "generator" : "Khronos glTF Blender I/O v1.3.48",
        "version" : "2.0"
    },
    "scene" : 0,
    "scenes" : [
        {
            "name" : "Scene",
            "nodes" : [
                0,
                1,
                2,
                3,
                4,
                5,
                6,
                7,
                8,
                9
            ]
        }
    ],
    "nodes" : [
        {
            "mesh" : 0,
            "name" : "110000",
            "translation" : [
                2,
                0,
                2
            ]
        },
        {
            "mesh" : 1,
            "name" : "100000",
            "translation" : [
                -2,
                0,
                0
            ]
        },
        {
            "mesh" : 2,
            "name" : "101010",
            "translation" : [
                0,
                0,
                -2
            ]
        },
        {
            "mesh" : 3,
            "name" : "101000",
            "translation" : [
                -2,
                0,
                -2
            ]
        },
        {
            "mesh" : 4,
            "name" : "111000",
            "translation" : [
                2,
                0,
                -2
            ]
        },
        {
            "mesh" : 5,
            "name" : "111010"
        },
        {
            "mesh" : 6,
            "name" : "111110",
            "translation" : [
                0,
                0,
                2
            ]
        },
        {
            "mesh" : 7,
            "name" : "111111",
            "translation" : [
                2,
                0,
                0
            ]
        },
        {
            "mesh" : 8,
            "name" : "000000",
            "translation" : [
                -2,
                0,
                2
            ]
        },
        {
            "mesh" : 9,
            "name" : "111100",
            "translation" : [
                4,
                0,
                0
            ]
        }
    ],
    "materials" : [
        {
            "doubleSided" : true,
            "emissiveFactor" : [
                0,
                0,
                0
            ],
            "name" : "Material",
            "pbrMetallicRoughness" : {
                "baseColorFactor" : [
                    0.800000011920929,
                    0.800000011920929,
                    0.800000011920929,
                    1
                ],
                "metallicFactor" : 0,
                "roughnessFactor" : 0.4000000059604645
            }
        }
    ],
    "meshes" : [
        {
            "name" : "Cube",
            "primitives" : [
                {
                    "attributes" : {
                        "POSITION" : 0,
                        "NORMAL" : 1,
                        "TEXCOORD_0" : 2
                    },
                    "indices" : 3,
                    "material" : 0
                }
            ]
        },
        {
            "name" : "Cube.001",
            "primitives" : [
                {
                    "attributes" : {
                        "POSITION" : 4,
                        "NORMAL" : 5,
                        "TEXCOORD_0" : 6
                    },
                    "indices" : 7,
                    "material" : 0
                }
            ]
        },
        {
            "name" : "Cube.002",
            "primitives" : [
                {
                    "attributes" : {
                        "POSITION" : 8,
                        "NORMAL" : 9,
                        "TEXCOORD_0" : 10
                    },
                    "indices" : 11,
                    "material" : 0
                }
            ]
        },
        {
            "name" : "Cube.003",
            "primitives" : [
                {
                    "attributes" : {
                        "POSITION" : 12,
                        "NORMAL" : 13,
                        "TEXCOORD_0" : 14
                    },
                    "indices" : 15,
                    "material" : 0
                }
            ]
        },
        {
            "name" : "Cube.004",
            "primitives" : [
                {
                    "attributes" : {
                        "POSITION" : 16,
                        "NORMAL" : 17,
                        "TEXCOORD_0" : 18
                    },
                    "indices" : 19,
                    "material" : 0
                }
            ]
        },
        {
            "name" : "Cube.005",
            "primitives" : [
                {
                    "attributes" : {
                        "POSITION" : 20,
                        "NORMAL" : 21,
                        "TEXCOORD_0" : 22
                    },
                    "indices" : 23,
                    "material" : 0
                }
            ]
        },
        {
            "name" : "Cube.006",
            "primitives" : [
                {
                    "attributes" : {
                        "POSITION" : 24,
                        "NORMAL" : 25,
                        "TEXCOORD_0" : 26
                    },
                    "indices" : 27,
                    "material" : 0
                }
            ]
        },
        {
            "name" : "Cube.007",
            "primitives" : [
                {
                    "attributes" : {
                        "POSITION" : 28,
                        "NORMAL" : 29,
                        "TEXCOORD_0" : 30
                    },
                    "indices" : 31,
                    "material" : 0
                }
            ]
        },
        {
            "name" : "Cube.008",
            "primitives" : [
                {
                    "attributes" : {
                        "POSITION" : 32,
                        "NORMAL" : 33,
                        "TEXCOORD_0" : 34
                    },
                    "indices" : 35,
                    "material" : 0
                }
            ]
        },
        {
            "name" : "Cube.009",
            "primitives" : [
                {
                    "attributes" : {
                        "POSITION" : 36,
                        "NORMAL" : 37,
                        "TEXCOORD_0" : 38
                    },
                    "indices" : 39,
                    "material" : 0
                }
            ]
        }
    ],
    "accessors" : [
        {
            "bufferView" : 0,
            "componentType" : 5126,
            "count" : 16,
            "max" : [
                0.4999999403953552,
                0.15000003576278687,
                0.1499999761581421
            ],
            "min" : [
                -0.4999999403953552,
                -0.15000003576278687,
                -0.1499999761581421
            ],
            "type" : "VEC3"
        },
        {
            "bufferView" : 1,
            "componentType" : 5126,
            "count" : 16,
            "type" : "VEC3"
        },
        {
            "bufferView" : 2,
            "componentType" : 5126,
            "count" : 16,
            "type" : "VEC2"
        },
        {
            "bufferView" : 3,
            "componentType" : 5123,
            "count" : 24,
            "type" : "SCALAR"
        },
        {
            "bufferView" : 4,
            "componentType" : 5126,
            "count" : 20,
            "max" : [
                0.15000000596046448,
                0.15000003576278687,
                0.1499999761581421
            ],
            "min" : [
                -0.4999999403953552,
                -0.15000003576278687,
                -0.1499999761581421
            ],
            "type" : "VEC3"
        },
        {
            "bufferView" : 5,
            "componentType" : 5126,
            "count" : 20,
            "type" : "VEC3"
        },
        {
            "bufferView" : 6,
            "componentType" : 5126,
            "count" : 20,
            "type" : "VEC2"
        },
        {
            "bufferView" : 7,
            "componentType" : 5123,
            "count" : 30,
            "type" : "SCALAR"
        },
        {
            "bufferView" : 8,
            "componentType" : 5126,
            "count" : 48,
            "max" : [
                0.1499999761581421,
                0.15000000596046448,
                0.5
            ],
            "min" : [
                -0.4999999701976776,
                -0.5,
                -0.15000002086162567
            ],
            "type" : "VEC3"
        },
        {
            "bufferView" : 9,
            "componentType" : 5126,
            "count" : 48,
            "type" : "VEC3"
        },
        {
            "bufferView" : 10,
            "componentType" : 5126,
            "count" : 48,
            "type" : "VEC2"
        },
        {
            "bufferView" : 11,
            "componentType" : 5123,
            "count" : 72,
            "type" : "SCALAR"
        },
        {
            "bufferView" : 12,
            "componentType" : 5126,
            "count" : 32,
            "max" : [
                0.14999999105930328,
                0.1499999761581421,
                0.5
            ],
            "min" : [
                -0.49999991059303284,
                -0.1499999761581421,
                -0.15000003576278687
            ],
            "type" : "VEC3"
        },
        {
            "bufferView" : 13,
            "componentType" : 5126,
            "count" : 32,
            "type" : "VEC3"
        },
        {
            "bufferView" : 14,
            "componentType" : 5126,
            "count" : 32,
            "type" : "VEC2"
        },
        {
            "bufferView" : 15,
            "componentType" : 5123,
            "count" : 48,
            "type" : "SCALAR"
        },
        {
            "bufferView" : 16,
            "componentType" : 5126,
            "count" : 47,
            "max" : [
                0.49999991059303284,
                0.1499999761581421,
                0.5
            ],
            "min" : [
                -0.49999991059303284,
                -0.1499999761581421,
                -0.15000003576278687
            ],
            "type" : "VEC3"
        },
        {
            "bufferView" : 17,
            "componentType" : 5126,
            "count" : 47,
            "type" : "VEC3"
        },
        {
            "bufferView" : 18,
            "componentType" : 5126,
            "count" : 47,
            "type" : "VEC2"
        },
        {
            "bufferView" : 19,
            "componentType" : 5123,
            "count" : 78,
            "type" : "SCALAR"
        },
        {
            "bufferView" : 20,
            "componentType" : 5126,
            "count" : 66,
            "max" : [
                0.49999991059303284,
                0.1499999761581421,
                0.5
            ],
            "min" : [
                -0.49999991059303284,
                -0.5,
                -0.15000003576278687
            ],
            "type" : "VEC3"
        },
        {
            "bufferView" : 21,
            "componentType" : 5126,
            "count" : 66,
            "type" : "VEC3"
        },
        {
            "bufferView" : 22,
            "componentType" : 5126,
            "count" : 66,
            "type" : "VEC2"
        },
        {
            "bufferView" : 23,
            "componentType" : 5123,
            "count" : 102,
            "type" : "SCALAR"
        },
        {
            "bufferView" : 24,
            "componentType" : 5126,
            "count" : 80,
            "max" : [
                0.49999988079071045,
                0.15000003576278687,
                0.5
            ],
            "min" : [
                -0.49999988079071045,
                -0.5,
                -0.5
            ],
            "type" : "VEC3"
        },
        {
            "bufferView" : 25,
            "componentType" : 5126,
            "count" : 80,
            "type" : "VEC3"
        },
        {
            "bufferView" : 26,
            "componentType" : 5126,
            "count" : 80,
            "type" : "VEC2"
        },
        {
            "bufferView" : 27,
            "componentType" : 5123,
            "count" : 126,
            "type" : "SCALAR"
        },
        {
            "bufferView" : 28,
            "componentType" : 5126,
            "count" : 96,
            "max" : [
                0.49999988079071045,
                0.5,
                0.5
            ],
            "min" : [
                -0.49999988079071045,
                -0.5,
                -0.5
            ],
            "type" : "VEC3"
        },
        {
            "bufferView" : 29,
            "componentType" : 5126,
            "count" : 96,
            "type" : "VEC3"
        },
        {
            "bufferView" : 30,
            "componentType" : 5126,
            "count" : 96,
            "type" : "VEC2"
        },
        {
            "bufferView" : 31,
            "componentType" : 5123,
            "count" : 144,
            "type" : "SCALAR"
        },
        {
            "bufferView" : 32,
            "componentType" : 5126,
            "count" : 24,
            "max" : [
                0.15000000596046448,
                0.15000003576278687,
                0.1499999761581421
            ],
            "min" : [
                -0.1499999463558197,
                -0.15000003576278687,
                -0.1499999761581421
            ],
            "type" : "VEC3"
        },
        {
            "bufferView" : 33,
            "componentType" : 5126,
            "count" : 24,
            "type" : "VEC3"
        },
        {
            "bufferView" : 34,
            "componentType" : 5126,
            "count" : 24,
            "type" : "VEC2"
        },
        {
            "bufferView" : 35,
            "componentType" : 5123,
            "count" : 36,
            "type" : "SCALAR"
        },
        {
            "bufferView" : 36,
            "componentType" : 5126,
            "count" : 68,
            "max" : [
                0.49999988079071045,
                0.15000003576278687,
                0.5
            ],
            "min" : [
                -0.49999988079071045,
                -0.15000003576278687,
                -0.5
            ],
            "type" : "VEC3"
        },
        {
            "bufferView" : 37,
            "componentType" : 5126,
            "count" : 68,
            "type" : "VEC3"
        },
        {
            "bufferView" : 38,
            "componentType" : 5126,
            "count" : 68,
            "type" : "VEC2"
        },
        {
            "bufferView" : 39,
            "componentType" : 5123,
            "count" : 108,
            "type" : "SCALAR"
        }
    ],
    "bufferViews" : [
        {
            "buffer" : 0,
            "byteLength" : 192,
            "byteOffset" : 0
        },
        {
            "buffer" : 0,
            "byteLength" : 192,
            "byteOffset" : 192
        },
        {
            "buffer" : 0,
            "byteLength" : 128,
            "byteOffset" : 384
        },
        {
            "buffer" : 0,
            "byteLength" : 48,
            "byteOffset" : 512
        },
        {
            "buffer" : 0,
            "byteLength" : 240,
            "byteOffset" : 560
        },
        {
            "buffer" : 0,
            "byteLength" : 240,
            "byteOffset" : 800
        },
        {
            "buffer" : 0,
            "byteLength" : 160,
            "byteOffset" : 1040
        },
        {
            "buffer" : 0,
            "byteLength" : 60,
            "byteOffset" : 1200
        },
        {
            "buffer" : 0,
            "byteLength" : 576,
            "byteOffset" : 1260
        },
        {
            "buffer" : 0,
            "byteLength" : 576,
            "byteOffset" : 1836
        },
        {
            "buffer" : 0,
            "byteLength" : 384,
            "byteOffset" : 2412
        },
        {
            "buffer" : 0,
            "byteLength" : 144,
            "byteOffset" : 2796
        },
        {
            "buffer" : 0,
            "byteLength" : 384,
            "byteOffset" : 2940
        },
        {
            "buffer" : 0,
            "byteLength" : 384,
            "byteOffset" : 3324
        },
        {
            "buffer" : 0,
            "byteLength" : 256,
            "byteOffset" : 3708
        },
        {
            "buffer" : 0,
            "byteLength" : 96,
            "byteOffset" : 3964
        },
        {
            "buffer" : 0,
            "byteLength" : 564,
            "byteOffset" : 4060
        },
        {
            "buffer" : 0,
            "byteLength" : 564,
            "byteOffset" : 4624
        },
        {
            "buffer" : 0,
            "byteLength" : 376,
            "byteOffset" : 5188
        },
        {
            "buffer" : 0,
            "byteLength" : 156,
            "byteOffset" : 5564
        },
        {
            "buffer" : 0,
            "byteLength" : 792,
            "byteOffset" : 5720
        },
        {
            "buffer" : 0,
            "byteLength" : 792,
            "byteOffset" : 6512
        },
        {
            "buffer" : 0,
            "byteLength" : 528,
            "byteOffset" : 7304
        },
        {
            "buffer" : 0,
            "byteLength" : 204,
            "byteOffset" : 7832
        },
        {
            "buffer" : 0,
            "byteLength" : 960,
            "byteOffset" : 8036
        },
        {
            "buffer" : 0,
            "byteLength" : 960,
            "byteOffset" : 8996
        },
        {
            "buffer" : 0,
            "byteLength" : 640,
            "byteOffset" : 9956
        },
        {
            "buffer" : 0,
            "byteLength" : 252,
            "byteOffset" : 10596
        },
        {
            "buffer" : 0,
            "byteLength" : 1152,
            "byteOffset" : 10848
        },
        {
            "buffer" : 0,
            "byteLength" : 1152,
            "byteOffset" : 12000
        },
        {
            "buffer" : 0,
            "byteLength" : 768,
            "byteOffset" : 13152
        },
        {
            "buffer" : 0,
            "byteLength" : 288,
            "byteOffset" : 13920
        },
        {
            "buffer" : 0,
            "byteLength" : 288,
            "byteOffset" : 14208
        },
        {
            "buffer" : 0,
            "byteLength" : 288,
            "byteOffset" : 14496
        },
        {
            "buffer" : 0,
            "byteLength" : 192,
            "byteOffset" : 14784
        },
        {
            "buffer" : 0,
            "byteLength" : 72,
            "byteOffset" : 14976
        },
        {
            "buffer" : 0,
            "byteLength" : 816,
            "byteOffset" : 15048
        },
        {
            "buffer" : 0,
            "byteLength" : 816,
            "byteOffset" : 15864
        },
        {
            "buffer" : 0,
            "byteLength" : 544,
            "byteOffset" : 16680
        },
        {
            "buffer" : 0,
            "byteLength" : 216,
            "byteOffset" : 17224
        }
    ],
    "buffers" : [
        {
            "byteLength" : 17440,
            "uri" : "data:application/octet-stream;base64,"
        }
    ]
}
